# xmcd
#
# Track frame offsets: 
#        150
#        14980
#        27365
#        40657
#        58775
#        75750
#        87622
#        104690
#        118727
#        132402
#
# Disc length: 2053 seconds
#
# Revision: 5
# Processed by: cddbd v1.5.2PL0 Copyright (c) Steve Scherf et al.
# Submitted via: ExactAudioCopy v0.99pb3
#
DISCID=8708030a
DTITLE=Faith Hill - Take Me as I Am
DYEAR=1993
DGENRE=Country
TTITLE0=Take Me as I Am
TTITLE1=Wild One
TTITLE2=Just About Now
TTITLE3=Piece of My Heart
TTITLE4=I've Got This Friend (feat. Larry Stewart)
TTITLE5=Life's Too Short to Love Like That
TTITLE6=But I Will
TTITLE7=Just Around the Eyes
TTITLE8=Go the Distance
TTITLE9=I Would Be Stronger Than That
EXTD=\nYEAR: 2000  ID3G:  17
EXTT0=
EXTT1=
EXTT2=
EXTT3=
EXTT4=
EXTT5=
EXTT6=
EXTT7=
EXTT8=
EXTT9=
PLAYORDER=
